<svg width="80" height="80" viewBox="0 0 80 80" fill="none" xmlns="http://www.w3.org/2000/svg">
<path d="M40 40H39L39 80L40 80L40 40Z" fill="url(#paint0_angular)"/>
<path d="M4.37114e-08 40L40 40L40 41L0 41L4.37114e-08 40Z" fill="url(#paint1_angular)"/>
<path d="M40 64C39.9877 50.7506 29.2494 40.0123 16 40L40 40L40 64Z" fill="url(#paint2_angular)"/>
<path d="M40 16C40.0123 29.2493 50.7506 39.9877 64 40L40 40L40 16Z" fill="url(#paint3_angular)"/>
<path d="M40 40L41 40L41 0H40L40 40Z" fill="url(#paint4_angular)"/>
<path d="M80 40L40 40L40 39L80 39V40Z" fill="url(#paint5_angular)"/>
<defs>
<radialGradient id="paint0_angular" cx="0" cy="0" r="1" gradientUnits="userSpaceOnUse" gradientTransform="translate(40 35.5) rotate(-155.863) scale(100.266)">
<stop stop-color="#FF9AD6"/>
<stop offset="1" stop-color="#0F35FF" stop-opacity="0.22"/>
</radialGradient>
<radialGradient id="paint1_angular" cx="0" cy="0" r="1" gradientUnits="userSpaceOnUse" gradientTransform="translate(40 35.5) rotate(-155.863) scale(100.266)">
<stop stop-color="#FF9AD6"/>
<stop offset="1" stop-color="#0F35FF" stop-opacity="0.22"/>
</radialGradient>
<radialGradient id="paint2_angular" cx="0" cy="0" r="1" gradientUnits="userSpaceOnUse" gradientTransform="translate(40 35.5) rotate(-155.863) scale(100.266)">
<stop stop-color="#FF9AD6"/>
<stop offset="1" stop-color="#0F35FF" stop-opacity="0.22"/>
</radialGradient>
<radialGradient id="paint3_angular" cx="0" cy="0" r="1" gradientUnits="userSpaceOnUse" gradientTransform="translate(40 35.5) rotate(-155.863) scale(100.266)">
<stop stop-color="#FF9AD6"/>
<stop offset="1" stop-color="#0F35FF" stop-opacity="0.22"/>
</radialGradient>
<radialGradient id="paint4_angular" cx="0" cy="0" r="1" gradientUnits="userSpaceOnUse" gradientTransform="translate(40 35.5) rotate(-155.863) scale(100.266)">
<stop stop-color="#FF9AD6"/>
<stop offset="1" stop-color="#0F35FF" stop-opacity="0.22"/>
</radialGradient>
<radialGradient id="paint5_angular" cx="0" cy="0" r="1" gradientUnits="userSpaceOnUse" gradientTransform="translate(40 35.5) rotate(-155.863) scale(100.266)">
<stop stop-color="#FF9AD6"/>
<stop offset="1" stop-color="#0F35FF" stop-opacity="0.22"/>
</radialGradient>
</defs>
</svg>
